<svg width="42" height="48" viewBox="0 0 42 48" fill="none" xmlns="http://www.w3.org/2000/svg">
<path fill-rule="evenodd" clip-rule="evenodd" d="M40.094 7.77243L21.719 0.143332C21.2587 -0.0477305 20.7413 -0.0478242 20.281 0.143332L1.90603 7.77243C1.20619 8.06305 0.75 8.7463 0.75 9.50408V18.7783C0.75 31.5483 8.46834 43.0352 20.2914 47.861C20.7456 48.0463 21.2543 48.0463 21.7086 47.861C33.5315 43.0353 41.25 31.5484 41.25 18.7783V9.50408C41.25 8.7463 40.7939 8.06305 40.094 7.77243ZM18.5936 25.5971L27.9502 15.7801C28.8003 14.8882 30.1786 14.888 31.0288 15.7801C31.8789 16.6721 31.8788 18.1182 31.0287 19.0101L20.1329 30.4421C19.2826 31.3342 17.9043 31.3339 17.0543 30.4421L10.9706 24.059C10.1205 23.167 10.1205 21.7209 10.9706 20.829C11.8208 19.9371 13.1991 19.9369 14.0492 20.829L18.5936 25.5971Z" fill="#6B7CFF"/>
</svg>
